<svg width="35" height="35" viewBox="0 0 35 35" fill="none" xmlns="http://www.w3.org/2000/svg">
<path fill-rule="evenodd" clip-rule="evenodd" d="M17.5 0C27.1628 0 35 7.8372 35 17.5C35 27.1628 27.1628 35 17.5 35C7.8372 35 0 27.1628 0 17.5C0 7.8372 7.8372 0 17.5 0Z" fill="white"/>
<path fill-rule="evenodd" clip-rule="evenodd" d="M17.5003 1.78882C26.1674 1.78882 33.2116 8.81463 33.2116 17.5001C33.2116 26.1856 26.1858 33.2114 17.5003 33.2114C8.81488 33.2114 1.78906 26.1671 1.78906 17.5001C1.78906 8.83308 8.81488 1.78882 17.5003 1.78882Z" fill="#E62661"/>
<path d="M20.0813 11.7283H14.918V27.9006H20.0813V11.7283Z" fill="white"/>
<path fill-rule="evenodd" clip-rule="evenodd" d="M17.4996 4.97876C18.9195 4.97876 20.0813 6.14051 20.0813 7.56042C20.0813 8.98034 18.9195 10.1421 17.4996 10.1421C16.0797 10.1421 14.918 8.98034 14.918 7.56042C14.918 6.14051 16.0797 4.97876 17.4996 4.97876Z" fill="white"/>
<path d="M20.0649 11.3594H13.666V13.48H20.0649V11.3594Z" fill="white"/>
<path d="M21.3188 27.144H13.666V29.2647H21.3188V27.144Z" fill="white"/>
</svg>
