<svg id="Слой_2" data-name="Слой 2" xmlns="http://www.w3.org/2000/svg" viewBox="0 0 320 447"><defs><style>.cls-1,.cls-2,.cls-3{stroke:#000;stroke-miterlimit:10;}.cls-2{fill:#fff;}.cls-2,.cls-3{stroke-width:3px;}.cls-3{fill:none;}</style></defs><rect class="cls-1" x="95.5" y="407" width="130" height="39.5" rx="17.5"/><path class="cls-2" d="M678,1165c0-91.40308-70.96289-165.5-158.5-165.5S361,1073.59692,361,1165a170.22138,170.22138,0,0,0,22.71544,85.41407A327.7024,327.7024,0,0,1,406.023,1296.466L456.5,1423.5h127l36.58428-92.44429a784.8077,784.8077,0,0,1,38.48707-86.606A170.493,170.493,0,0,0,678,1165Z" transform="translate(-359.5 -998)"/><path class="cls-3" d="M558,1367.62963,593.5,1246.5s-30,29-45,7,3-33,8-26,12,33-36,36h-1c-48-3-41-29-36-36s23,4,8,26-45-7-45-7L482,1367.62963" transform="translate(-359.5 -998)"/></svg>