<svg id="Слой_4" data-name="Слой 4" xmlns="http://www.w3.org/2000/svg" viewBox="0 0 332.65741 333.5"><defs><style>.cls-1{fill:#fff;stroke:#000;stroke-miterlimit:10;stroke-width:3px;}</style></defs><polygon class="cls-1" points="30.839 82.329 30.839 99.592 1.5 161.361 1.5 331.9 79.406 331.9 79.406 161.361 50.066 99.592 50.066 82.329 30.839 82.329"/><rect class="cls-1" x="24.5124" y="55.38587" width="32.1788" height="26.94293" rx="2.59259"/><rect class="cls-1" x="122.94166" y="98.49457" width="60.57185" height="12.57337" rx="3.5"/><rect class="cls-1" x="162.69194" y="111.06793" width="15.14296" height="16.16576"/><rect class="cls-1" x="145.6561" y="127.2337" width="45.42889" height="25.14674" rx="5.16667"/><rect class="cls-1" x="122.94166" y="152.38043" width="90.85778" height="179.61957" rx="18.55556"/><rect class="cls-1" x="234.62102" y="1.5" width="66.25047" height="21.55435" rx="5"/><rect class="cls-1" x="244.08537" y="23.05435" width="47.32176" height="12.57337"/><rect class="cls-1" x="204.33509" y="35.62772" width="126.82232" height="296.37228" rx="26.66667"/><path class="cls-1" d="M519.321,1139.20924" transform="translate(-246.84259 -906)"/><path class="cls-1" d="M519.321,1139.20924" transform="translate(-246.84259 -906)"/><rect class="cls-1" x="77.51277" y="179.32337" width="56.78611" height="14.36957" rx="2.44444"/><rect class="cls-1" x="69.94129" y="193.69293" width="71.92908" height="138.30707" rx="6.31481"/></svg>