<svg id="Слой_10" data-name="Слой 10" xmlns="http://www.w3.org/2000/svg" viewBox="0 0 289 336.40214"><defs><style>.cls-1{fill:#fff;stroke:#000;stroke-miterlimit:10;stroke-width:3px;}</style></defs><path class="cls-1" d="M743,1335.7567l-39.80275-35.14433a29.53805,29.53805,0,0,0-36.43311-2.05482l-50.27806,35.145A38.50077,38.50077,0,0,0,600,1365.251V1565.837h45.54815l-1.05926-157.47876,11.996,146.96446a35.76649,35.76649,0,0,0,30.50231,32.39553L743,1596Z" transform="translate(-598.5 -1261.33595)"/><path class="cls-1" d="M743,1335.7567l39.80275-35.14433a29.53805,29.53805,0,0,1,36.43311-2.05482l50.27806,35.145A38.50077,38.50077,0,0,1,886,1365.251V1565.837H840.45185l1.05926-157.47876-11.996,146.96446a35.76649,35.76649,0,0,1-30.50231,32.39553L743,1596Z" transform="translate(-598.5 -1261.33595)"/><path class="cls-1" d="M691.08279,1283.66177l13.852-19.90013a2.12323,2.12323,0,0,1,3.32038-.23472l34.4152,35.36857a2.0977,2.0977,0,0,1,.55088,1.33068l-.30536,33.60819a.749.749,0,0,1-1.26682.59278c-6.205-6.068-32.32223-31.18144-47.62329-39.21563A7.91525,7.91525,0,0,1,691.08279,1283.66177Z" transform="translate(-598.5 -1261.33595)"/><path class="cls-1" d="M794.75114,1283.66177l-13.75209-19.75664a2.26266,2.26266,0,0,0-3.53844-.25013l-34.267,35.20793a2.21959,2.21959,0,0,0-.58289,1.408l.32426,33.17654a.89763.89763,0,0,0,1.51381.72182c6.64892-6.48953,32.26625-31.03278,47.35937-38.95778A7.91525,7.91525,0,0,0,794.75114,1283.66177Z" transform="translate(-598.5 -1261.33595)"/><path class="cls-1" d="M808.06878,1457.28541H785.97566a14.11781,14.11781,0,0,1-13.92836-13.0407l-3.84856-43.96339a14.18961,14.18961,0,0,1,13.92836-15.59748h29.79024a14.1896,14.1896,0,0,1,13.92836,15.59748l-3.84856,43.96339A14.1178,14.1178,0,0,1,808.06878,1457.28541Z" transform="translate(-598.5 -1261.33595)"/></svg>