<svg width="42" height="42" viewBox="0 0 42 42" fill="none" xmlns="http://www.w3.org/2000/svg">
<path d="M20.9999 38.5001C18.354 38.5075 15.7416 37.9088 13.3629 36.75C12.4924 36.3266 11.6583 35.832 10.8692 35.2713L10.6294 35.0963C8.45911 33.4943 6.68471 31.4164 5.44243 29.022C4.15747 26.5438 3.49102 23.7915 3.49984 21C3.49984 11.335 11.3349 3.5 20.9999 3.5C30.6649 3.5 38.5 11.335 38.5 21C38.5087 23.7902 37.8429 26.5412 36.5592 29.0185C35.3186 31.4115 33.5467 33.4887 31.3792 35.091C30.5615 35.6895 29.6938 36.2164 28.7857 36.666L28.6457 36.736C26.2655 37.901 23.6499 38.5045 20.9999 38.5001ZM20.9999 29.75C18.3775 29.7449 15.9733 31.2095 14.7752 33.5422C18.6976 35.4851 23.3022 35.4851 27.2247 33.5422V33.5335C26.025 31.2033 23.6208 29.742 20.9999 29.75ZM20.9999 26.25C24.7906 26.2549 28.2859 28.2977 30.1507 31.598L30.1769 31.5752L30.2014 31.5543L30.1717 31.5805L30.1542 31.5945C34.5799 27.7709 36.1624 21.5991 34.1226 16.1177C32.0827 10.6363 26.8503 7.00055 21.0017 7.00055C15.153 7.00055 9.92067 10.6363 7.8808 16.1177C5.84092 21.5991 7.42343 27.7709 11.8492 31.5945C13.7151 28.2958 17.2101 26.2546 20.9999 26.25ZM20.9999 24.5C17.1339 24.5 13.9999 21.366 13.9999 17.5C13.9999 13.634 17.1339 10.5 20.9999 10.5C24.8659 10.5 27.9999 13.634 27.9999 17.5C27.9999 19.3565 27.2624 21.137 25.9497 22.4497C24.6369 23.7625 22.8564 24.5 20.9999 24.5ZM20.9999 14C19.0669 14 17.4999 15.567 17.4999 17.5C17.4999 19.433 19.0669 21 20.9999 21C22.9329 21 24.4999 19.433 24.4999 17.5C24.4999 15.567 22.9329 14 20.9999 14Z" fill="#2E2E2E"/>
</svg>
