<svg id="Слой_8" data-name="Слой 8" xmlns="http://www.w3.org/2000/svg" viewBox="0 0 254.76367 342.37947"><defs><style>.cls-1{fill:#fff;}.cls-1,.cls-2{stroke:#000;stroke-linecap:round;stroke-miterlimit:10;stroke-width:3px;}.cls-2{fill:#fcfcfc;}</style></defs><path class="cls-1" d="M330.75251,1606.87512h0c-7.80518-3.73432-10.859-12.61293-6.82091-19.83094l113.13911-202.23395c4.0381-7.218,13.639-10.0421,21.44414-6.30779l0,0c7.80518,3.73431,10.859,12.61293,6.82091,19.83094l-113.13911,202.234C348.15855,1607.78535,338.55768,1610.60944,330.75251,1606.87512Z" transform="translate(-289.73633 -1268.12053)"/><path class="cls-1" d="M535.79972,1606.59592l0,0c-7.35315,4.45026-17.21519,2.54543-22.02747-4.25456L375.68483,1407.217c-4.81228-6.8-2.7525-15.92013,4.60066-20.3704l0,0c7.35316-4.45026,17.21519-2.54543,22.02747,4.25456l138.08739,195.12437C545.21265,1593.02551,543.15287,1602.14565,535.79972,1606.59592Z" transform="translate(-289.73633 -1268.12053)"/><ellipse class="cls-2" cx="481.71972" cy="1331.85355" rx="68.15895" ry="42.7066" transform="translate(-1194.80573 -223.84949) rotate(-58.39985)"/><path class="cls-1" d="M406.0697,1358.66728c-.46757-4.78273-3.79361-8.94063-6.82125-12.84219l-53.45925-68.89c-.86668-1.11684-2.71445-.03621-1.99481,1.16663l36.23177,60.55982a24.83275,24.83275,0,0,1,3.66835,14.21234c-.57723,9.53138-6.71394,6.72221-11.17649,3.33814a34.00578,34.00578,0,0,1-6.47468-6.55239l-48.88124-59.587c-1.22068-1.488-3.72-.07863-2.84842,1.60628l35.25446,68.15519a31.204,31.204,0,0,1,3.00989,8.42838c1.01871,5.31605.64413,11.72581-8.9444,7.22886a27.84642,27.84642,0,0,1-11.28007-9.76368L293.55678,1307.732c-.8246-1.23266-2.8526-.21914-2.18939,1.09417l38.33331,75.90921a41.27292,41.27292,0,0,0,8.77144,11.78627C346.762,1404.17605,412.867,1428.197,406.0697,1358.66728Z" transform="translate(-289.73633 -1268.12053)"/></svg>